<svg width="42" height="28" viewBox="0 0 42 28" fill="none" xmlns="http://www.w3.org/2000/svg">
<path d="M3.47262 17.7059C7.17978 21.3913 13.645 26.4998 21.0005 26.4998C28.356 26.4998 34.82 21.3913 38.5272 17.7059C39.5048 16.7339 39.9954 16.2462 40.3067 15.2919C40.5288 14.611 40.5288 13.389 40.3067 12.7081C39.9954 11.7538 39.5049 11.266 38.5271 10.294C34.82 6.60851 28.356 1.5 21.0005 1.5C13.645 1.5 7.17978 6.60851 3.47262 10.294C2.49416 11.2667 2.00488 11.7534 1.69345 12.7081C1.47132 13.389 1.47132 14.611 1.69345 15.2919C2.00488 16.2466 2.49416 16.7331 3.47262 17.7059Z" stroke="#040033" stroke-width="3" stroke-linecap="round" stroke-linejoin="round"/>
<path d="M16.8335 14C16.8335 16.3012 18.6989 18.1667 21.0001 18.1667C23.3013 18.1667 25.1668 16.3012 25.1668 14C25.1668 11.6988 23.3013 9.83333 21.0001 9.83333C18.6989 9.83333 16.8335 11.6988 16.8335 14Z" stroke="#040033" stroke-width="3" stroke-linecap="round" stroke-linejoin="round"/>
</svg>
