<svg width="63" height="45" viewBox="0 0 63 45" fill="none" xmlns="http://www.w3.org/2000/svg">
<path d="M3.11 24.66C3.11 23 3.45 21.53 4.13 20.25C4.83 18.97 5.77 17.98 6.95 17.28C8.15 16.56 9.47 16.2 10.91 16.2C12.21 16.2 13.34 16.46 14.3 16.98C15.28 17.48 16.06 18.11 16.64 18.87V16.47H20.09V33H16.64V30.54C16.06 31.32 15.27 31.97 14.27 32.49C13.27 33.01 12.13 33.27 10.85 33.27C9.43 33.27 8.13 32.91 6.95 32.19C5.77 31.45 4.83 30.43 4.13 29.13C3.45 27.81 3.11 26.32 3.11 24.66ZM16.64 24.72C16.64 23.58 16.4 22.59 15.92 21.75C15.46 20.91 14.85 20.27 14.09 19.83C13.33 19.39 12.51 19.17 11.63 19.17C10.75 19.17 9.93 19.39 9.17 19.83C8.41 20.25 7.79 20.88 7.31 21.72C6.85 22.54 6.62 23.52 6.62 24.66C6.62 25.8 6.85 26.8 7.31 27.66C7.79 28.52 8.41 29.18 9.17 29.64C9.95 30.08 10.77 30.3 11.63 30.3C12.51 30.3 13.33 30.08 14.09 29.64C14.85 29.2 15.46 28.56 15.92 27.72C16.4 26.86 16.64 25.86 16.64 24.72ZM28.002 18.93C28.582 18.13 29.372 17.48 30.372 16.98C31.392 16.46 32.522 16.2 33.762 16.2C35.222 16.2 36.542 16.55 37.722 17.25C38.902 17.95 39.832 18.95 40.512 20.25C41.192 21.53 41.532 23 41.532 24.66C41.532 26.32 41.192 27.81 40.512 29.13C39.832 30.43 38.892 31.45 37.692 32.19C36.512 32.91 35.202 33.27 33.762 33.27C32.482 33.27 31.342 33.02 30.342 32.52C29.362 32.02 28.582 31.38 28.002 30.6V33H24.582V10.8H28.002V18.93ZM38.052 24.66C38.052 23.52 37.812 22.54 37.332 21.72C36.872 20.88 36.252 20.25 35.472 19.83C34.712 19.39 33.892 19.17 33.012 19.17C32.152 19.17 31.332 19.39 30.552 19.83C29.792 20.27 29.172 20.91 28.692 21.75C28.232 22.59 28.002 23.58 28.002 24.72C28.002 25.86 28.232 26.86 28.692 27.72C29.172 28.56 29.792 29.2 30.552 29.64C31.332 30.08 32.152 30.3 33.012 30.3C33.892 30.3 34.712 30.08 35.472 29.64C36.252 29.18 36.872 28.52 37.332 27.66C37.812 26.8 38.052 25.8 38.052 24.66ZM43.7741 24.72C43.7741 23.02 44.1141 21.53 44.7941 20.25C45.4941 18.95 46.4541 17.95 47.6741 17.25C48.8941 16.55 50.2941 16.2 51.8741 16.2C53.8741 16.2 55.5241 16.68 56.8241 17.64C58.1441 18.58 59.0341 19.93 59.4941 21.69H55.8041C55.5041 20.87 55.0241 20.23 54.3641 19.77C53.7041 19.31 52.8741 19.08 51.8741 19.08C50.4741 19.08 49.3541 19.58 48.5141 20.58C47.6941 21.56 47.2841 22.94 47.2841 24.72C47.2841 26.5 47.6941 27.89 48.5141 28.89C49.3541 29.89 50.4741 30.39 51.8741 30.39C53.8541 30.39 55.1641 29.52 55.8041 27.78H59.4941C59.0141 29.46 58.1141 30.8 56.7941 31.8C55.4741 32.78 53.8341 33.27 51.8741 33.27C50.2941 33.27 48.8941 32.92 47.6741 32.22C46.4541 31.5 45.4941 30.5 44.7941 29.22C44.1141 27.92 43.7741 26.42 43.7741 24.72Z" fill="#040033"/>
<path d="M2 25L60.9757 24.9414" stroke="#040033" stroke-width="3" stroke-linecap="round"/>
</svg>
