<svg width="42" height="38" viewBox="0 0 42 38" fill="none" xmlns="http://www.w3.org/2000/svg">
<path d="M4.33323 2.3335L37.6666 35.6668M30.3749 28.9082C27.557 30.4262 24.372 31.4999 20.9999 31.4999C13.6444 31.4999 7.17979 26.3915 3.47263 22.706C2.49409 21.7332 2.00489 21.2468 1.69346 20.2921C1.47136 19.6112 1.47129 18.3888 1.69346 17.708C2.00498 16.7532 2.49519 16.2657 3.47568 15.2911C5.34419 13.4339 7.91265 11.216 10.9422 9.47257M36.6249 24.4865C37.3187 23.8763 37.9542 23.2759 38.5245 22.7091L38.5305 22.7027C39.5068 21.7323 39.9963 21.2458 40.3072 20.2931C40.5294 19.6122 40.5289 18.3894 40.3068 17.7085C39.9955 16.7541 39.5057 16.2663 38.5278 15.2941C34.8206 11.6087 28.3554 6.50016 20.9999 6.50016C20.2968 6.50016 19.6018 6.54684 18.9166 6.6345M23.756 22.1252C23.0214 22.7735 22.0566 23.1668 20.9999 23.1668C18.6987 23.1668 16.8332 21.3013 16.8332 19.0002C16.8332 17.8762 17.2783 16.8566 18.0017 16.1071" stroke="#040033" stroke-width="3" stroke-linecap="round" stroke-linejoin="round"/>
</svg>
