<svg width="54" height="54" viewBox="0 0 54 54" fill="none" xmlns="http://www.w3.org/2000/svg">
<rect width="54" height="54" rx="27" fill="#3483F9"/>
<path d="M22.3432 22.9822C22.7075 21.8189 22.5828 17.7574 17.2064 14.6027C13.0036 12.1372 10.1886 11.1767 9.10389 12.4463C8.10183 13.6184 8.68371 16.2223 10.0124 19.6108C11.4873 23.3712 13.806 27.4053 16.0743 27.3602C20.7599 27.2677 21.3815 26.0536 22.3432 22.9822Z" fill="#57F287"/>
<path d="M13.3845 21.7895C13.3845 21.7895 9.92347 17.4934 11.1408 15.9272C12.3581 14.3609 17.0642 16.4459 20.4766 20.4665C23.889 24.4872 19.572 27.0277 17.5717 27.3808C15.5714 27.7338 13.9522 27.0235 13.5545 25.1735C13.1568 23.3234 13.3845 21.7895 13.3845 21.7895Z" fill="#FFF2A6"/>
<path d="M28.5912 6.7203C28.406 5.4933 27.318 2.98748 29.9199 2.935C32.5218 2.88249 31.8446 4.69159 31.4317 6.01704C32.8687 4.67905 34.4821 3.76168 35.1174 5.69214C35.8008 7.76923 35.0009 7.98685 31.6698 8.68725L28.5912 6.7203Z" fill="#29CC7A"/>
<path d="M32.9399 35.9684L24.9205 32.0621C18.4961 37.4486 17.4126 39.447 18.2802 40.836C18.5729 41.3043 19.0013 41.8455 19.5407 42.4092C18.9249 43.6062 18.7582 44.4896 19.1278 45.1457C20.0404 46.7652 24.9727 49.1811 26.8546 49.0315C27.7624 48.9596 28.416 48.5032 28.9485 47.0359C29.5168 47.0546 30.091 47.0259 30.6687 46.9361C32.7749 46.6094 33.6779 44.4342 32.9399 35.9684Z" fill="#29CC7A"/>
<path d="M25.8368 33.5539C22.687 36.3777 19.6526 40.3418 21.7746 41.6115C23.4018 42.5851 24.8308 42.2268 24.8308 42.2268C24.8308 42.2268 25.831 44.5286 27.7336 44.625C29.6363 44.7214 31.0774 42.2644 30.8842 35.834L25.8368 33.5539Z" fill="#57F287"/>
<path d="M21.4535 18.4792C21.3246 12.3294 21.8626 6.7373 25.3173 6.03807C28.772 5.33886 31.2799 6.94039 32.1843 9.99069C33.0887 13.041 34.1542 18.2275 34.1542 18.2275C34.1542 18.2275 37.995 27.9069 35.4696 31.9438C33.5072 35.08 28.9793 35.6127 24.6308 34.8105C20.2823 34.0084 16.0393 30.1518 17.5735 24.5348C18.6576 20.567 21.4535 18.4792 21.4535 18.4792Z" fill="#29CC7A"/>
<path d="M29.6538 9.23646C29.8906 9.93234 29.6512 10.5208 29.2573 10.6356C28.8635 10.7505 28.4694 10.3175 28.2935 9.74404C28.1177 9.17055 28.215 8.65431 28.6069 8.53281C28.926 8.43338 29.4603 8.66839 29.6538 9.23646Z" fill="#E9F5FF"/>
<path d="M22.7311 10.1971C22.6482 10.7557 22.4226 11.2333 22.1556 11.2292C21.8087 11.2236 21.6103 10.6448 21.6932 10.0862C21.7761 9.52757 22.1108 9.18165 22.457 9.20516C22.7561 9.22533 22.814 9.63847 22.7311 10.1971Z" fill="#E9F5FF"/>
<path d="M17.5383 29.2313C18.9398 32.7538 21.5751 34.3144 24.6583 34.9488C28.1999 35.6776 34.0673 35.0737 35.1487 32.3237C36.2302 29.5736 31.2716 20.7995 28.8066 20.9216C26.5503 21.0333 25.8845 22.5023 24.8199 24.5382C24.2454 22.0792 23.7843 20.6666 22.1731 20.8074C20.5618 20.9481 16.1369 25.7089 17.5383 29.2313Z" fill="#FFE75C"/>
<path d="M24.2141 14.2679C23.8995 16.555 24.3997 17.6535 25.0733 17.6992C25.9246 17.7569 27.4093 15.7332 27.9131 13.8222C26.9659 11.6956 25.1802 10.5043 24.2834 10.6418C23.4394 10.7707 23.0939 11.6804 24.2141 14.2679Z" fill="#FFE75C"/>
<path d="M24.5754 14.2245C24.476 15.1737 24.5454 16.1544 25.0414 16.1803C25.9284 16.2256 27.1267 13.8892 27.1267 13.8892C27.1267 13.8892 25.5814 12.4412 24.552 12.5811C24.1167 12.6406 24.1577 13.2439 24.5754 14.2245Z" fill="#E9F5FF"/>
<path d="M27.0152 14.096C26.7213 14.0176 26.2418 13.9355 25.7196 14.0335C25.1218 14.1455 24.7588 14.4538 24.5393 14.7547C24.5176 15.5077 24.6391 16.1596 25.0421 16.1801C25.7659 16.2169 26.6976 14.6664 27.0152 14.096Z" fill="#D11583"/>
<path d="M33.4093 21.5089C32.7767 20.467 32.3951 18.9379 37.2506 13.6965C40.6667 10.0085 43.9974 8.85187 44.9763 9.72664C45.7733 10.4386 45.7551 14.9639 45.0184 18.5277C44.2817 22.0916 42.8439 25.6849 41.1903 26.0617C38.6369 26.6437 35.0802 24.2599 33.4093 21.5089Z" fill="#57F287"/>
<path d="M33.4879 21.9507C34.0391 23.0948 39.5183 28.0741 40.8892 25.0352C41.7467 23.1342 40.7139 20.9903 40.7139 20.9903C40.7139 20.9903 43.6892 19.0093 43.8786 15.7075C44.068 12.4057 40.8833 13.9966 37.6905 16.9153C34.4977 19.834 33.0451 21.0323 33.4879 21.9507Z" fill="#FFF2A6"/>
<path d="M23.2693 32.1754C22.8996 33.055 20.7685 37.0953 19.9384 37.6136C19.2494 38.0442 18.7121 36.9741 17.3813 35.1997C15.8539 33.1631 15.5117 32.4664 16.0506 31.9733C16.5415 31.5244 17.9058 32.6593 19.6397 35.1197C19.6397 35.1197 21.7953 32.0031 22.1672 31.5786C22.5392 31.1541 23.4789 31.6769 23.2693 32.1754Z" fill="#FF78B9"/>
<path d="M28.0778 31.9968C28.0543 32.3677 29.2645 37.6537 29.6077 38.1819C29.9873 38.7658 30.6877 38.2491 32.4226 37.3814C34.6997 36.2426 35.4634 35.5651 35.1053 34.9287C34.7791 34.349 33.172 34.9165 30.6953 36.0994C30.6953 36.0994 29.5657 32.1982 29.3447 31.6783C29.1237 31.1585 28.1114 31.4568 28.0778 31.9968Z" fill="#FF78B9"/>
</svg>
